<svg xmlns="http://www.w3.org/2000/svg" width="1200" height="760" viewBox="0 0 1200 760">
  <defs>
    <style>
      .entity { fill: #fff; stroke: #374151; stroke-width: 3; }
      .attr { fill: #fff; stroke: #4b5563; stroke-width: 2; }
      .line { stroke: #4b5563; stroke-width: 2; }
      .title { font: 700 25px 'Microsoft YaHei', sans-serif; fill: #111827; }
      .text { font: 21px 'Microsoft YaHei', sans-serif; fill: #1f2937; text-anchor: middle; dominant-baseline: middle; }
    </style>
  </defs>
  <rect width="1200" height="760" fill="#fff"/>
  <text x="600" y="40" class="title" text-anchor="middle">职位实体属性图</text>
  <rect x="510" y="330" width="180" height="90" class="entity"/><text x="600" y="375" class="text">职位</text>

  <line x1="510" y1="350" x2="260" y2="125" class="line"/><ellipse cx="210" cy="100" rx="130" ry="48" class="attr"/><text x="210" y="100" class="text">职位ID（PK）</text>
  <line x1="535" y1="330" x2="420" y2="145" class="line"/><ellipse cx="400" cy="105" rx="120" ry="48" class="attr"/><text x="400" y="105" class="text">职位名称</text>
  <line x1="580" y1="330" x2="580" y2="155" class="line"/><ellipse cx="580" cy="105" rx="105" ry="48" class="attr"/><text x="580" y="105" class="text">所属部门</text>
  <line x1="640" y1="330" x2="760" y2="145" class="line"/><ellipse cx="780" cy="105" rx="105" ry="48" class="attr"/><text x="780" y="105" class="text">工作地点</text>
  <line x1="690" y1="350" x2="970" y2="125" class="line"/><ellipse cx="1010" cy="100" rx="120" ry="48" class="attr"/><text x="1010" y="100" class="text">职位状态</text>

  <line x1="510" y1="375" x2="235" y2="300" class="line"/><ellipse cx="165" cy="280" rx="125" ry="48" class="attr"/><text x="165" y="280" class="text">最低薪资</text>
  <line x1="510" y1="400" x2="240" y2="500" class="line"/><ellipse cx="165" cy="525" rx="125" ry="48" class="attr"/><text x="165" y="525" class="text">最高薪资</text>
  <line x1="535" y1="420" x2="390" y2="630" class="line"/><ellipse cx="360" cy="670" rx="125" ry="48" class="attr"/><text x="360" y="670" class="text">招聘人数</text>
  <line x1="600" y1="420" x2="600" y2="625" class="line"/><ellipse cx="600" cy="670" rx="125" ry="48" class="attr"/><text x="600" y="670" class="text">岗位职责</text>
  <line x1="665" y1="420" x2="810" y2="630" class="line"/><ellipse cx="840" cy="670" rx="125" ry="48" class="attr"/><text x="840" y="670" class="text">任职要求</text>
  <line x1="690" y1="400" x2="960" y2="500" class="line"/><ellipse cx="1030" cy="525" rx="125" ry="48" class="attr"/><text x="1030" y="525" class="text">创建人ID（FK）</text>
</svg>
