<svg xmlns="http://www.w3.org/2000/svg" width="1280" height="760" viewBox="0 0 1280 760">
  <defs><style>.b{fill:#fff;stroke:#4b5563;stroke-width:2}.t{font:18px 'Microsoft YaHei',sans-serif;fill:#374151;text-anchor:middle;dominant-baseline:middle}.h{font:700 23px 'Microsoft YaHei',sans-serif;fill:#111827}</style></defs>
  <rect width="1280" height="760" fill="#fff"/><rect x="25" y="25" width="1230" height="710" class="b"/>
  <rect x="25" y="25" width="1230" height="72" class="b"/><text x="55" y="67" class="h">面试任务与反馈</text><rect x="1080" y="43" width="140" height="38" class="b"/><text x="1150" y="62" class="t">创建面试</text>
  <rect x="50" y="125" width="380" height="560" class="b"/><text x="240" y="155" class="h" text-anchor="middle">我的面试任务</text><rect x="75" y="195" width="330" height="100" class="b"/><text x="240" y="225" class="t">张三 · Java 后端工程师</text><text x="240" y="258" class="t">今天 15:00 · 线上一面</text><rect x="75" y="320" width="330" height="100" class="b"/><text x="240" y="350" class="t">李四 · AI 算法实习生</text><text x="240" y="383" class="t">明天 10:00 · 线下面试</text>
  <rect x="460" y="125" width="350" height="560" class="b"/><text x="635" y="155" class="h" text-anchor="middle">候选人简报</text><rect x="485" y="195" width="300" height="120" class="b"/><text x="635" y="235" class="t">基础资料 / 简历摘要</text><text x="635" y="275" class="t">项目经历 / 技能关键词</text><rect x="485" y="345" width="300" height="145" class="b"/><text x="635" y="385" class="t">AI 建议面试问题</text><text x="635" y="425" class="t">显示依据和风险提示</text><text x="635" y="465" class="t">不替代面试官判断</text>
  <rect x="840" y="125" width="380" height="560" class="b"/><text x="1030" y="155" class="h" text-anchor="middle">结构化面试反馈</text><rect x="865" y="195" width="330" height="55" class="b"/><text x="1030" y="222" class="t">评分：0 - 100</text><rect x="865" y="275" width="330" height="145" class="b"/><text x="1030" y="347" class="t">面试评价输入区</text><rect x="865" y="445" width="155" height="50" class="b"/><text x="942" y="470" class="t">录用建议</text><rect x="1040" y="445" width="155" height="50" class="b"/><text x="1117" y="470" class="t">提交反馈</text><rect x="865" y="530" width="330" height="105" class="b"/><text x="1030" y="565" class="t">AI 反馈摘要</text><text x="1030" y="602" class="t">保留原始评价，可人工确认</text>
</svg>
