<svg xmlns="http://www.w3.org/2000/svg" width="1280" height="760" viewBox="0 0 1280 760">
  <defs><style>.b{fill:#fff;stroke:#4b5563;stroke-width:2}.t{font:20px 'Microsoft YaHei',sans-serif;fill:#374151;text-anchor:middle;dominant-baseline:middle}.h{font:700 23px 'Microsoft YaHei',sans-serif;fill:#111827}</style></defs>
  <rect width="1280" height="760" fill="#fff"/><rect x="25" y="25" width="1230" height="710" class="b"/>
  <rect x="25" y="25" width="1230" height="74" class="b"/><text x="55" y="70" class="h">招聘与人才管理平台</text><rect x="1050" y="45" width="170" height="38" class="b"/><text x="1135" y="64" class="t">头像 / HR用户</text>
  <rect x="25" y="99" width="210" height="636" class="b"/><text x="130" y="145" class="t">工作台</text><text x="130" y="195" class="t">候选人</text><text x="130" y="245" class="t">招聘流程</text><text x="130" y="295" class="t">面试任务</text><text x="130" y="345" class="t">AI 审批</text>
  <text x="275" y="140" class="h">工作台</text>
  <rect x="270" y="170" width="205" height="105" class="b"/><text x="372" y="205" class="t">开放职位</text><text x="372" y="245" class="h" text-anchor="middle">28</text>
  <rect x="500" y="170" width="205" height="105" class="b"/><text x="602" y="205" class="t">待筛选候选人</text><text x="602" y="245" class="h" text-anchor="middle">64</text>
  <rect x="730" y="170" width="205" height="105" class="b"/><text x="832" y="205" class="t">今日面试</text><text x="832" y="245" class="h" text-anchor="middle">12</text>
  <rect x="960" y="170" width="260" height="105" class="b"/><text x="1090" y="205" class="t">待人工确认 AI 建议</text><text x="1090" y="245" class="h" text-anchor="middle">9</text>
  <rect x="270" y="305" width="590" height="380" class="b"/><text x="565" y="340" class="h" text-anchor="middle">招聘流程概览</text><rect x="300" y="380" width="110" height="220" class="b"/><text x="355" y="410" class="t">已投递</text><rect x="435" y="380" width="110" height="220" class="b"/><text x="490" y="410" class="t">筛选中</text><rect x="570" y="380" width="110" height="220" class="b"/><text x="625" y="410" class="t">面试中</text><rect x="705" y="380" width="110" height="220" class="b"/><text x="760" y="410" class="t">Offer</text>
  <rect x="890" y="305" width="330" height="380" class="b"/><text x="1055" y="340" class="h" text-anchor="middle">待办事项</text><rect x="915" y="380" width="280" height="64" class="b"/><text x="1055" y="412" class="t">高级 Java 工程师待初筛</text><rect x="915" y="465" width="280" height="64" class="b"/><text x="1055" y="497" class="t">面试反馈待补充</text><rect x="915" y="550" width="280" height="64" class="b"/><text x="1055" y="582" class="t">AI 摘要待人工审核</text>
</svg>
