<svg xmlns="http://www.w3.org/2000/svg" width="1280" height="760" viewBox="0 0 1280 760">
  <defs><style>.b{fill:#fff;stroke:#4b5563;stroke-width:2}.t{font:19px 'Microsoft YaHei',sans-serif;fill:#374151;text-anchor:middle;dominant-baseline:middle}.h{font:700 23px 'Microsoft YaHei',sans-serif;fill:#111827}</style></defs>
  <rect width="1280" height="760" fill="#fff"/><rect x="25" y="25" width="1230" height="710" class="b"/>
  <rect x="25" y="25" width="1230" height="72" class="b"/><text x="55" y="67" class="h">候选人管理</text><rect x="1080" y="43" width="140" height="38" class="b"/><text x="1150" y="62" class="t">新增候选人</text>
  <rect x="50" y="125" width="260" height="44" class="b"/><text x="180" y="147" class="t">搜索姓名 / 手机号 / 学校</text><rect x="330" y="125" width="135" height="44" class="b"/><text x="397" y="147" class="t">学历筛选</text><rect x="485" y="125" width="135" height="44" class="b"/><text x="552" y="147" class="t">状态筛选</text><rect x="640" y="125" width="90" height="44" class="b"/><text x="685" y="147" class="t">查询</text>
  <rect x="50" y="200" width="760" height="470" class="b"/><text x="430" y="222" class="h" text-anchor="middle">候选人列表</text>
  <line x1="50" y1="250" x2="810" y2="250" stroke="#4b5563" stroke-width="2"/><text x="110" y="275" class="t">姓名</text><text x="250" y="275" class="t">学历/学校</text><text x="410" y="275" class="t">工作年限</text><text x="560" y="275" class="t">当前状态</text><text x="720" y="275" class="t">操作</text>
  <line x1="50" y1="300" x2="810" y2="300" stroke="#4b5563" stroke-width="2"/>
  <line x1="50" y1="345" x2="810" y2="345" stroke="#9ca3af"/><line x1="50" y1="425" x2="810" y2="425" stroke="#9ca3af"/><line x1="50" y1="505" x2="810" y2="505" stroke="#9ca3af"/><line x1="50" y1="585" x2="810" y2="585" stroke="#9ca3af"/>
  <text x="110" y="325" class="t">张三</text><text x="250" y="325" class="t">本科 / 武汉理工</text><text x="410" y="325" class="t">2 年</text><text x="560" y="325" class="t">面试中</text><text x="720" y="325" class="t">查看详情</text>
  <rect x="840" y="200" width="380" height="470" class="b"/><text x="1030" y="230" class="h" text-anchor="middle">候选人详情</text><rect x="870" y="270" width="90" height="90" class="b"/><text x="915" y="315" class="t">头像</text><text x="1070" y="285" class="t">姓名 / 联系方式</text><text x="1070" y="325" class="t">学历 / 专业 / 年限</text><rect x="870" y="390" width="320" height="90" class="b"/><text x="1030" y="435" class="t">简历列表与技能摘要</text><rect x="870" y="505" width="320" height="105" class="b"/><text x="1030" y="545" class="t">历史投递与流程时间线</text><text x="1030" y="580" class="t">AI 摘要仅供参考</text>
  <rect x="320" y="690" width="220" height="30" class="b"/><text x="430" y="705" class="t">分页</text>
</svg>
