<svg xmlns="http://www.w3.org/2000/svg" width="1280" height="760" viewBox="0 0 1280 760">
  <defs><style>.b{fill:#fff;stroke:#4b5563;stroke-width:2}.t{font:18px 'Microsoft YaHei',sans-serif;fill:#374151;text-anchor:middle;dominant-baseline:middle}.h{font:700 23px 'Microsoft YaHei',sans-serif;fill:#111827}</style></defs>
  <rect width="1280" height="760" fill="#fff"/><rect x="25" y="25" width="1230" height="710" class="b"/>
  <rect x="25" y="25" width="1230" height="72" class="b"/><text x="55" y="67" class="h">招聘流程看板</text><rect x="1000" y="43" width="220" height="38" class="b"/><text x="1110" y="62" class="t">职位：Java 后端工程师</text>
  <rect x="50" y="125" width="210" height="560" class="b"/><text x="155" y="155" class="h" text-anchor="middle">已投递（18）</text><rect x="70" y="195" width="170" height="90" class="b"/><text x="155" y="225" class="t">候选人 A</text><text x="155" y="255" class="t">AI 匹配 86</text><rect x="70" y="310" width="170" height="90" class="b"/><text x="155" y="340" class="t">候选人 B</text><text x="155" y="370" class="t">AI 分析中</text>
  <rect x="285" y="125" width="210" height="560" class="b"/><text x="390" y="155" class="h" text-anchor="middle">筛选中（9）</text><rect x="305" y="195" width="170" height="105" class="b"/><text x="390" y="220" class="t">候选人 C</text><text x="390" y="250" class="t">查看简历</text><text x="390" y="278" class="t">通过 / 拒绝</text>
  <rect x="520" y="125" width="210" height="560" class="b"/><text x="625" y="155" class="h" text-anchor="middle">面试中（6）</text><rect x="540" y="195" width="170" height="105" class="b"/><text x="625" y="225" class="t">候选人 D</text><text x="625" y="255" class="t">一面 · 今天 15:00</text>
  <rect x="755" y="125" width="210" height="560" class="b"/><text x="860" y="155" class="h" text-anchor="middle">Offer（3）</text><rect x="775" y="195" width="170" height="105" class="b"/><text x="860" y="225" class="t">候选人 E</text><text x="860" y="255" class="t">已发送 · 待处理</text>
  <rect x="990" y="125" width="230" height="560" class="b"/><text x="1105" y="155" class="h" text-anchor="middle">已入职（12）</text><rect x="1010" y="195" width="190" height="105" class="b"/><text x="1105" y="225" class="t">候选人 F</text><text x="1105" y="255" class="t">员工编号 EMP001</text>
  <text x="635" y="715" class="t">卡片操作触发状态变更时必须弹出人工确认，并记录操作人和原因</text>
</svg>
